<svg xmlns="http://www.w3.org/2000/svg" width="512" height="512" viewBox="0 0 512 512">
    <g fill="none" fill-rule="evenodd">
        <g>
            <g>
                <path fill="#0D004C" d="M0 0H512V512H0z" transform="translate(-64 -1077) translate(64 1077)"/>
                <g fill="#FFF">
                    <path d="M42.47 47.515c2.821 0 6.129 1.698 6.316 9.788 0 1.387.027 2.82.08 4.363l.002 69.084c0 11.22-2.725 21.337-8.094 30.07-6.341 10.315-15.317 15.542-26.672 15.542-6.242 0-10.762-2.963-13.06-8.576C.345 166.035 0 164.14 0 162.116c0-6.426 2.97-11.048 8.587-13.372 1.72-.695 3.57-1.043 5.515-1.043 4.33 0 7.64 1.784 9.688 5.186 2.235-1.634 3.487-7.405 3.487-16.387V67.555H15.19c-1.832-.06-4.892-.963-5.781-6.37-.132-.914-.222-1.799-.28-2.713l-.008-.177c0-4.674 2.058-6.534 3.785-7.273 6.32-2.373 15.954-3.507 29.56-3.507h.003zM336.964 0c2.809 0 6.162 1.698 6.349 9.789 0 1.438.025 2.87.08 4.359l.002 66.222 30.226-30.39 1.863-.776h17.737c2.062 0 4.736 1.138 5.767 6.56.154 1.032.218 1.928.218 2.786 0 6.535-2.62 7.905-4.812 7.905-6.607 0-9.126.64-10.036 1.023-2.02.846-2.97 1.554-3.412 2l-16.56 16.962 27.608 30.68c2.863 3.232 6.598 4.794 11.435 4.794 2.233 0 4.896 1.385 4.896 7.992 0 3.37-.625 5.616-1.97 7.063-1.366 1.476-2.71 2.194-4.099 2.194h-21.837l-2.091-1.04-34.933-45.842v29.633h6.15c1.83 0 4.894 1.017 4.894 7.823 0 3.575-.654 5.907-2.068 7.335-.887.897-2.268 2.091-3.997 2.091h-37.485c-1.503 0-3.202-.634-4.126-3.105-1.22 2.6-3.31 3.105-4.749 3.105h-38.4c-2.196 0-4.816-1.356-4.816-7.823 0-3.48.936-6.19 2.784-8.053 1.128-1.143 2.32-1.381 3.116-1.381l.17.008c4.778 0 5.917-.874 6.081-1.028l.023-.024-.037-25.029c0-13.17-.918-18.474-1.686-20.606-1.04-2.894-2.324-4.925-3.816-6.04-1.45-1.085-3.556-1.633-6.253-1.633-5.338 0-12.161 3.209-20.293 9.542v44.818h10.336c3.248 0 4.897 2.902 4.897 8.623 0 7.786-4.248 8.626-6.07 8.626h-38.073c-1.797 0-4.81-.994-4.81-7.652-.07-3.447.89-6.234 2.86-8.224 1.135-1.143 2.29-1.381 3.059-1.381l.148.008c4.777 0 5.916-.874 6.083-1.028l.024-.024-.042-25.029c0-13.17-.913-18.476-1.681-20.606-1.04-2.894-2.326-4.925-3.82-6.04-1.449-1.085-3.552-1.633-6.257-1.633-5.334 0-12.155 3.209-20.285 9.542v44.818h11.419c1.799 0 4.81.994 4.81 7.652 0 3.546-.634 5.886-2.01 7.362-.894.96-2.282 2.235-4.056 2.235h-42.504c-1.412 0-3.549-.56-4.497-3.676-1.127 2.402-2.87 3.289-4.18 3.604-3.28.949-7.908 1.424-14.04 1.424h-.818c-8.353-.015-9.14-.246-9.668-.4-1.053-.312-2.017-.862-2.867-1.636-.93-.841-1.788-2.08-2.616-3.803-6.674 4.102-14.53 6.179-23.399 6.179-9.24 0-16.66-2.573-22.048-7.649-5.22-4.834-7.844-11.25-7.782-19.048 0-9.438 3.532-16.95 10.492-22.306 5.96-4.622 13.452-6.969 22.265-6.969h18.009c-.171-9.621-1.262-13.042-1.937-14.24-1.255-2.24-2.725-3.779-4.371-4.577-1.777-.865-4.28-1.3-7.432-1.3h-5.053c.105.746.158 1.522.158 2.323 0 2.19-.345 4.172-1.025 5.892l-.07.163c-.794 1.673-1.813 3.143-3.023 4.367-2.612 2.637-5.954 4.01-9.937 4.077-6.29.002-10.803-2.965-13.106-8.576-.693-1.751-1.04-3.834-1.04-6.22 0-2.576.736-5.02 2.189-7.255 1.364-2.095 3.173-3.914 5.39-5.402 2.114-1.426 4.53-2.587 7.179-3.448 2.53-.823 5.139-1.48 7.753-1.949 4.536-.813 9.55-1.224 14.892-1.224 5.56 0 10.474.93 14.613 2.76 4.207 1.862 7.605 4.433 10.097 7.644 4.267 5.542 6.395 13.408 6.337 23.388v40.61H144.8c1.324 0 3.304.522 4.291 3.35.234-.44.505-.825.816-1.158 1.366-1.476 2.706-2.194 4.095-2.194l.811.002c6.306 0 8.299-.655 8.838-.912l.014-53.45h-12.09c-1.773-.061-4.762-.975-5.846-6.454-.157-1.054-.22-1.92-.22-2.72 0-4.78 2.113-6.63 3.885-7.338 1.622-.65 3.68-1.225 6.115-1.702 2.359-.467 4.874-.823 7.465-1.054 5.15-.547 8.928-.817 11.509-.817l.385.004c3.377.04 5.192.496 6.27 1.583.896.907 1.526 2.064 1.866 3.435.168.566.368 1.564.459 3.824 7.11-3.709 13.742-6.354 19.768-7.877 2.464-.621 4.511-.924 6.244-.924 10.283 0 18.054 3.703 23.138 11.017 8.053-4.52 15.99-7.851 23.627-9.912 2.653-.732 5.899-1.105 9.635-1.105 3.854 0 7.724.826 11.494 2.456 3.888 1.679 7.02 4.155 9.305 7.36 3.931 5.468 5.851 13.723 5.851 25.23v39.354h10.33c2.084 0 3.508 1.192 4.262 3.554.259-.52.569-.97.93-1.36 1.37-1.476 2.707-2.194 4.096-2.194l.817.002c6.31 0 8.293-.646 8.826-.897l.02-.077V20.04h-12.09c-2.11-.074-4.735-1.253-5.764-6.454-.148-.998-.237-1.881-.298-2.797l-.005-.177c0-4.72 2.14-6.553 3.94-7.26 1.696-.668 3.818-1.201 6.483-1.627 2.566-.404 5.248-.725 7.977-.955 5.154-.453 10.176-.712 14.916-.77zM96.202 102.892c-3.855 0-6.742.618-8.352 1.787-3.155 2.216-4.676 4.57-4.676 7.218 0 7.176 3.616 9.123 6.333 9.965 1.369.428 2.824.644 4.334.644 6.037 0 12.07-2.375 17.947-7.06v-12.552l-15.586-.002zM36.275 2.96c3.943 0 7.318 1.387 10.023 4.118 2.706 2.736 4.08 6.2 4.08 10.297.065 4.018-1.293 7.482-4.037 10.254-2.624 2.65-6.012 3.993-10.066 3.993-6.298 0-10.843-2.964-13.146-8.577-.693-1.747-1.037-3.645-1.037-5.67 0-6.43 2.999-11.054 8.675-13.376 1.793-.695 3.627-1.039 5.508-1.039z" transform="translate(-64 -1077) translate(64 1077) translate(51.2 167.5)"/>
                </g>
            </g>
        </g>
    </g>
</svg>
