<svg xmlns="http://www.w3.org/2000/svg" viewBox="0 0 193 83">
    <g fill="none" fill-rule="evenodd">
        <g fill="#FFF">
            <g>
                <path d="M19.915 22.28c1.323 0 2.874.797 2.962 4.591 0 .65.013 1.322.038 2.046v32.395c0 5.262-1.277 10.005-3.795 14.1-2.974 4.838-7.182 7.289-12.507 7.289-2.927 0-5.047-1.39-6.125-4.022C.162 77.86 0 76.97 0 76.02c0-3.013 1.393-5.18 4.026-6.27.807-.326 1.675-.49 2.587-.49 2.03 0 3.582.838 4.543 2.433 1.048-.766 1.635-3.473 1.635-7.684v-32.33H7.124c-.86-.029-2.295-.452-2.711-2.988-.062-.428-.105-.843-.132-1.272l-.004-.083c0-2.192.966-3.064 1.775-3.41 2.964-1.113 7.482-1.645 13.862-1.645h.001zM158.011 0c1.318 0 2.89.796 2.978 4.59 0 .675.011 1.346.037 2.044l.001 31.054 14.174-14.251.873-.364h8.318c.967 0 2.22.534 2.704 3.076.072.484.102.904.102 1.307 0 3.064-1.228 3.707-2.256 3.707-3.098 0-4.28.3-4.706.48-.948.396-1.393.728-1.6.937l-7.766 7.954 12.946 14.387c1.343 1.515 3.095 2.248 5.363 2.248 1.047 0 2.296.65 2.296 3.747 0 1.581-.294 2.634-.924 3.312-.64.692-1.271 1.03-1.922 1.03h-10.24l-.98-.488-16.382-21.497v13.896h2.884c.858 0 2.295.476 2.295 3.668 0 1.676-.307 2.77-.97 3.44-.416.42-1.064.98-1.874.98h-17.578c-.705 0-1.502-.298-1.935-1.457-.57 1.22-1.552 1.457-2.226 1.457h-18.008c-1.03 0-2.258-.636-2.258-3.668 0-1.632.44-2.903 1.306-3.777.529-.535 1.088-.647 1.461-.647l.08.004c2.195 0 2.752-.394 2.846-.478l.016-.016-.018-11.736c0-6.176-.43-8.663-.79-9.663-.487-1.357-1.09-2.31-1.79-2.833-.68-.508-1.667-.765-2.931-.765-2.504 0-5.703 1.505-9.516 4.474V57.17h4.846c1.523 0 2.296 1.36 2.296 4.044 0 3.65-1.992 4.044-2.846 4.044H98.464c-.843 0-2.256-.466-2.256-3.588-.033-1.617.418-2.923 1.342-3.857.531-.535 1.073-.647 1.434-.647l.07.004c2.194 0 2.751-.394 2.846-.478l.017-.016-.02-11.736c0-6.176-.428-8.664-.788-9.663-.487-1.357-1.09-2.31-1.791-2.833-.68-.508-1.666-.765-2.934-.765-2.502 0-5.7 1.505-9.512 4.474V57.17h5.354c.844 0 2.256.466 2.256 3.588 0 1.663-.298 2.76-.942 3.452-.42.45-1.07 1.048-1.903 1.048H71.706c-.663 0-1.665-.262-2.11-1.725-.527 1.128-1.344 1.544-1.96 1.691-1.537.445-3.707.668-6.582.668-4.278 0-4.662-.113-4.918-.187-.494-.147-.946-.404-1.344-.767-.436-.395-.839-.976-1.227-1.784-3.13 1.924-6.814 2.897-10.972 2.897-4.334 0-7.813-1.206-10.34-3.586-2.447-2.267-3.678-5.275-3.649-8.932 0-4.426 1.657-7.949 4.92-10.46 2.796-2.168 6.309-3.268 10.441-3.268h8.445c-.08-4.512-.592-6.116-.908-6.678-.589-1.05-1.278-1.771-2.05-2.146-.833-.405-2.007-.61-3.485-.61h-2.37c.05.35.075.714.075 1.09 0 1.027-.162 1.956-.48 2.763l-.034.076c-.372.785-.85 1.474-1.417 2.048-1.225 1.236-2.792 1.88-4.66 1.912-2.95 0-5.066-1.39-6.146-4.022-.325-.821-.487-1.798-.487-2.916 0-1.209.344-2.354 1.026-3.402.64-.983 1.488-1.836 2.527-2.534.992-.669 2.125-1.213 3.367-1.616 1.186-.386 2.41-.694 3.635-.914 2.127-.381 4.478-.575 6.984-.575 2.607 0 4.911.437 6.852 1.295 1.973.873 3.566 2.079 4.735 3.584 2 2.6 2.999 6.288 2.972 10.968v19.042H67.9c.621 0 1.55.245 2.012 1.571.11-.206.237-.386.383-.543.64-.692 1.269-1.028 1.92-1.028h.38c2.958 0 3.892-.306 4.145-.427l.007-25.064h-5.67c-.831-.029-2.233-.457-2.741-3.027-.074-.494-.104-.9-.104-1.275 0-2.241.991-3.11 1.822-3.441.76-.305 1.726-.574 2.868-.798 1.106-.22 2.285-.386 3.5-.494 2.415-.257 4.187-.384 5.397-.384l.18.002c1.584.019 2.436.233 2.941.743.42.425.716.968.875 1.61.079.266.173.734.215 1.794 3.334-1.74 6.444-2.98 9.27-3.694 1.155-.291 2.115-.433 2.928-.433 4.822 0 8.466 1.736 10.85 5.166 3.776-2.12 7.498-3.682 11.08-4.648 1.243-.344 2.765-.518 4.517-.518 1.808 0 3.622.387 5.39 1.151 1.823.788 3.292 1.949 4.364 3.451 1.843 2.565 2.743 6.436 2.743 11.832v18.454h4.844c.978 0 1.645.559 1.999 1.666.121-.243.267-.455.436-.638.642-.692 1.27-1.028 1.92-1.028h.384c2.959 0 3.888-.302 4.138-.42l.01-.036V9.397h-5.669c-.99-.034-2.22-.587-2.703-3.026-.07-.468-.111-.882-.14-1.312l-.002-.083c0-2.213 1.004-3.073 1.847-3.404.795-.313 1.79-.563 3.04-.763 1.204-.19 2.461-.34 3.741-.448 2.417-.212 4.771-.334 6.994-.361zm-112.9 48.249c-1.807 0-3.161.29-3.916.838-1.48 1.039-2.192 2.143-2.192 3.384 0 3.366 1.695 4.279 2.97 4.673.641.201 1.323.302 2.032.302 2.83 0 5.66-1.113 8.416-3.31V48.25l-7.31-.001zm-28.1-46.861c1.848 0 3.431.65 4.7 1.931 1.268 1.283 1.912 2.907 1.912 4.829.031 1.884-.606 3.508-1.892 4.808-1.231 1.243-2.82 1.872-4.72 1.872-2.954 0-5.085-1.39-6.165-4.021-.325-.82-.486-1.71-.486-2.66 0-3.014 1.406-5.183 4.068-6.272.84-.326 1.7-.487 2.582-.487z" transform="translate(-64 -260) translate(64.43 260)" />
            </g>
        </g>
    </g>
</svg>
